{
	"asset":{
		"generator":"Khronos glTF Blender I/O v3.6.27",
		"version":"2.0"
	},
	"extensionsUsed":[
		"KHR_materials_specular",
		"KHR_materials_ior"
	],
	"scene":0,
	"scenes":[
		{
			"name":"Scene",
			"nodes":[
				0,
				1,
				2,
				3,
				4,
				5,
				6,
				7,
				8,
				9,
				10,
				11,
				12,
				13,
				14,
				15,
				16,
				17
			]
		}
	],
	"nodes":[
		{
			"mesh":0,
			"name":"upper floor"
		},
		{
			"mesh":1,
			"name":"machine01"
		},
		{
			"mesh":2,
			"name":"machine02"
		},
		{
			"mesh":3,
			"name":"machine03"
		},
		{
			"mesh":4,
			"name":"AvatarScreen"
		},
		{
			"mesh":5,
			"name":"Back Structure"
		},
		{
			"mesh":6,
			"name":"machine04"
		},
		{
			"mesh":7,
			"name":"Plane.001"
		},
		{
			"mesh":8,
			"name":"Cylinder.001"
		},
		{
			"mesh":9,
			"name":"Cube.005"
		},
		{
			"mesh":10,
			"name":"Pipe"
		},
		{
			"mesh":11,
			"name":"Floor"
		},
		{
			"mesh":12,
			"name":"icon_cube"
		},
		{
			"mesh":13,
			"name":"Base",
			"rotation":[
				0,
				1,
				0,
				0
			],
			"scale":[
				-1,
				-1,
				-1
			]
		},
		{
			"mesh":14,
			"name":"Rotate",
			"rotation":[
				0,
				1,
				0,
				0
			],
			"scale":[
				-1,
				-1,
				-1
			]
		},
		{
			"mesh":15,
			"name":"NameScreen",
			"scale":[
				0.8999999761581421,
				1.6195975542068481,
				0.8999999761581421
			],
			"translation":[
				0,
				-0.4867262542247772,
				0
			]
		},
		{
			"mesh":16,
			"name":"Web Screen",
			"rotation":[
				-0.23037822544574738,
				0.33520233631134033,
				-0.5174378752708435,
				0.7528768181800842
			],
			"scale":[
				0.8500000238418579,
				1,
				1.149999976158142
			],
			"translation":[
				-0.18263161182403564,
				1.0383667945861816,
				0.28296732902526855
			]
		},
		{
			"mesh":17,
			"name":"Stairs",
			"translation":[
				0,
				0.31837695837020874,
				0
			]
		}
	],
	"materials":[
		{
			"doubleSided":true,
			"extensions":{
				"KHR_materials_specular":{
					"specularColorFactor":[
						1.2968361953976395,
						1.2968361953976395,
						1.2968361953976395
					]
				},
				"KHR_materials_ior":{
					"ior":1.4500000476837158
				}
			},
			"name":"Grey",
			"pbrMetallicRoughness":{
				"baseColorFactor":[
					0.3343236446380615,
					0.3343236446380615,
					0.3343236446380615,
					1
				],
				"metallicFactor":0,
				"roughnessFactor":0.09375
			}
		},
		{
			"doubleSided":true,
			"name":"Dark grey",
			"pbrMetallicRoughness":{
				"baseColorFactor":[
					0.08713981509208679,
					0.08713981509208679,
					0.08713981509208679,
					1
				],
				"metallicFactor":0,
				"roughnessFactor":0.21875
			}
		},
		{
			"doubleSided":true,
			"extensions":{
				"KHR_materials_specular":{
					"specularColorFactor":[
						0.5002082467962323,
						0.5002082467962323,
						0.5002082467962323
					]
				},
				"KHR_materials_ior":{
					"ior":1.4500000476837158
				}
			},
			"name":"White",
			"pbrMetallicRoughness":{
				"baseColorFactor":[
					0.800000011920929,
					0.800000011920929,
					0.800000011920929,
					1
				],
				"metallicFactor":0,
				"roughnessFactor":0.203125
			}
		},
		{
			"doubleSided":true,
			"name":"Orange",
			"pbrMetallicRoughness":{
				"baseColorFactor":[
					0.8000000715255737,
					0.18371731042861938,
					0.011057132855057716,
					1
				],
				"metallicFactor":0,
				"roughnessFactor":0.5
			}
		},
		{
			"doubleSided":true,
			"name":"Cyab",
			"pbrMetallicRoughness":{
				"baseColorFactor":[
					0.09705004841089249,
					0.4034412205219269,
					0.8000000715255737,
					1
				],
				"metallicFactor":0,
				"roughnessFactor":0.5
			}
		},
		{
			"doubleSided":true,
			"name":"Red",
			"pbrMetallicRoughness":{
				"baseColorFactor":[
					0.8000000715255737,
					0.020415835082530975,
					0.011192708276212215,
					1
				],
				"metallicFactor":0,
				"roughnessFactor":0.5
			}
		}
	],
	"meshes":[
		{
			"name":"Cube.003",
			"primitives":[
				{
					"attributes":{
						"POSITION":0,
						"NORMAL":1,
						"TEXCOORD_0":2
					},
					"indices":3,
					"material":0
				}
			]
		},
		{
			"name":"Cube.004",
			"primitives":[
				{
					"attributes":{
						"POSITION":4,
						"NORMAL":5,
						"TEXCOORD_0":6
					},
					"indices":7
				}
			]
		},
		{
			"name":"Cube.006",
			"primitives":[
				{
					"attributes":{
						"POSITION":8,
						"NORMAL":9,
						"TEXCOORD_0":10
					},
					"indices":11,
					"material":1
				}
			]
		},
		{
			"name":"Cube.007",
			"primitives":[
				{
					"attributes":{
						"POSITION":12,
						"NORMAL":13,
						"TEXCOORD_0":14
					},
					"indices":15,
					"material":2
				}
			]
		},
		{
			"name":"Plane.001",
			"primitives":[
				{
					"attributes":{
						"POSITION":16,
						"NORMAL":17,
						"TEXCOORD_0":18
					},
					"indices":19,
					"material":0
				}
			]
		},
		{
			"name":"Cube.008",
			"primitives":[
				{
					"attributes":{
						"POSITION":20,
						"NORMAL":21,
						"TEXCOORD_0":22
					},
					"indices":23,
					"material":0
				}
			]
		},
		{
			"name":"Cube.009",
			"primitives":[
				{
					"attributes":{
						"POSITION":24,
						"NORMAL":25,
						"TEXCOORD_0":26
					},
					"indices":27,
					"material":3
				}
			]
		},
		{
			"name":"Plane",
			"primitives":[
				{
					"attributes":{
						"POSITION":28,
						"NORMAL":29,
						"TEXCOORD_0":30
					},
					"indices":31,
					"material":3
				}
			]
		},
		{
			"name":"Cylinder.005",
			"primitives":[
				{
					"attributes":{
						"POSITION":32,
						"NORMAL":33,
						"TEXCOORD_0":34
					},
					"indices":35,
					"material":4
				}
			]
		},
		{
			"name":"Cube",
			"primitives":[
				{
					"attributes":{
						"POSITION":36,
						"NORMAL":37,
						"TEXCOORD_0":38
					},
					"indices":39,
					"material":5
				}
			]
		},
		{
			"name":"Cube.001",
			"primitives":[
				{
					"attributes":{
						"POSITION":40,
						"NORMAL":41,
						"TEXCOORD_0":42
					},
					"indices":43,
					"material":0
				}
			]
		},
		{
			"name":"Cube.010",
			"primitives":[
				{
					"attributes":{
						"POSITION":44,
						"NORMAL":45,
						"TEXCOORD_0":46
					},
					"indices":47,
					"material":0
				}
			]
		},
		{
			"name":"Cube.002",
			"primitives":[
				{
					"attributes":{
						"POSITION":48,
						"NORMAL":49,
						"TEXCOORD_0":50
					},
					"indices":51
				}
			]
		},
		{
			"name":"Cylinder.002",
			"primitives":[
				{
					"attributes":{
						"POSITION":52,
						"NORMAL":53,
						"TEXCOORD_0":54
					},
					"indices":55,
					"material":0
				}
			]
		},
		{
			"name":"Cylinder.001",
			"primitives":[
				{
					"attributes":{
						"POSITION":56,
						"NORMAL":57,
						"TEXCOORD_0":58
					},
					"indices":59,
					"material":2
				}
			]
		},
		{
			"name":"Cylinder.003",
			"primitives":[
				{
					"attributes":{
						"POSITION":60,
						"NORMAL":61,
						"TEXCOORD_0":62
					},
					"indices":63
				}
			]
		},
		{
			"name":"Plane.002",
			"primitives":[
				{
					"attributes":{
						"POSITION":64,
						"NORMAL":65,
						"TEXCOORD_0":66
					},
					"indices":67
				}
			]
		},
		{
			"name":"Circle.001",
			"primitives":[
				{
					"attributes":{
						"POSITION":68,
						"NORMAL":69,
						"TEXCOORD_0":70
					},
					"indices":71,
					"material":2
				}
			]
		}
	],
	"accessors":[
		{
			"bufferView":0,
			"componentType":5126,
			"count":98,
			"max":[
				1.7651904821395874,
				0.16544534265995026,
				2.763976573944092
			],
			"min":[
				-2.507789134979248,
				0.06544534862041473,
				0.033414363861083984
			],
			"type":"VEC3"
		},
		{
			"bufferView":1,
			"componentType":5126,
			"count":98,
			"type":"VEC3"
		},
		{
			"bufferView":2,
			"componentType":5126,
			"count":98,
			"type":"VEC2"
		},
		{
			"bufferView":3,
			"componentType":5123,
			"count":264,
			"type":"SCALAR"
		},
		{
			"bufferView":4,
			"componentType":5126,
			"count":48,
			"max":[
				2.458972930908203,
				0.9875584244728088,
				2.208510637283325
			],
			"min":[
				1.7638846635818481,
				-0.8344911932945251,
				1.5134224891662598
			],
			"type":"VEC3"
		},
		{
			"bufferView":5,
			"componentType":5126,
			"count":48,
			"type":"VEC3"
		},
		{
			"bufferView":6,
			"componentType":5126,
			"count":48,
			"type":"VEC2"
		},
		{
			"bufferView":7,
			"componentType":5123,
			"count":72,
			"type":"SCALAR"
		},
		{
			"bufferView":8,
			"componentType":5126,
			"count":50,
			"max":[
				1.7638846635818481,
				0.05085751414299011,
				2.208510637283325
			],
			"min":[
				-0.9706958532333374,
				-0.8486759066581726,
				1.3237626552581787
			],
			"type":"VEC3"
		},
		{
			"bufferView":9,
			"componentType":5126,
			"count":50,
			"type":"VEC3"
		},
		{
			"bufferView":10,
			"componentType":5126,
			"count":50,
			"type":"VEC2"
		},
		{
			"bufferView":11,
			"componentType":5123,
			"count":96,
			"type":"SCALAR"
		},
		{
			"bufferView":12,
			"componentType":5126,
			"count":24,
			"max":[
				-0.24343836307525635,
				0.9875584244728088,
				2.7482645511627197
			],
			"min":[
				-0.9385265111923218,
				-0.8344911932945251,
				2.1789610385894775
			],
			"type":"VEC3"
		},
		{
			"bufferView":13,
			"componentType":5126,
			"count":24,
			"type":"VEC3"
		},
		{
			"bufferView":14,
			"componentType":5126,
			"count":24,
			"type":"VEC2"
		},
		{
			"bufferView":15,
			"componentType":5123,
			"count":36,
			"type":"SCALAR"
		},
		{
			"bufferView":16,
			"componentType":5126,
			"count":24,
			"max":[
				-2.4996743202209473,
				1.4892950057983398,
				2.0576374530792236
			],
			"min":[
				-2.5765492916107178,
				0.22816258668899536,
				0.20242899656295776
			],
			"type":"VEC3"
		},
		{
			"bufferView":17,
			"componentType":5126,
			"count":24,
			"type":"VEC3"
		},
		{
			"bufferView":18,
			"componentType":5126,
			"count":24,
			"type":"VEC2"
		},
		{
			"bufferView":19,
			"componentType":5123,
			"count":36,
			"type":"SCALAR"
		},
		{
			"bufferView":20,
			"componentType":5126,
			"count":396,
			"max":[
				1.7482200860977173,
				1.9859378337860107,
				2.7656948566436768
			],
			"min":[
				-3.0112404823303223,
				-0.9195611476898193,
				-0.4898648262023926
			],
			"type":"VEC3"
		},
		{
			"bufferView":21,
			"componentType":5126,
			"count":396,
			"type":"VEC3"
		},
		{
			"bufferView":22,
			"componentType":5126,
			"count":396,
			"type":"VEC2"
		},
		{
			"bufferView":23,
			"componentType":5123,
			"count":1140,
			"type":"SCALAR"
		},
		{
			"bufferView":24,
			"componentType":5126,
			"count":24,
			"max":[
				-2.4999454021453857,
				0.1748490035533905,
				2.699199676513672
			],
			"min":[
				-3.0051181316375732,
				-0.9109374284744263,
				-0.04030811786651611
			],
			"type":"VEC3"
		},
		{
			"bufferView":25,
			"componentType":5126,
			"count":24,
			"type":"VEC3"
		},
		{
			"bufferView":26,
			"componentType":5126,
			"count":24,
			"type":"VEC2"
		},
		{
			"bufferView":27,
			"componentType":5123,
			"count":36,
			"type":"SCALAR"
		},
		{
			"bufferView":28,
			"componentType":5126,
			"count":24,
			"max":[
				1.887675404548645,
				0.3611300587654114,
				2.187673807144165
			],
			"min":[
				-0.9068176746368408,
				0.2855427861213684,
				1.5507792234420776
			],
			"type":"VEC3"
		},
		{
			"bufferView":29,
			"componentType":5126,
			"count":24,
			"type":"VEC3"
		},
		{
			"bufferView":30,
			"componentType":5126,
			"count":24,
			"type":"VEC2"
		},
		{
			"bufferView":31,
			"componentType":5123,
			"count":36,
			"type":"SCALAR"
		},
		{
			"bufferView":32,
			"componentType":5126,
			"count":1086,
			"max":[
				1.2150843143463135,
				0.01679176092147827,
				1.6990724802017212
			],
			"min":[
				-0.4649157226085663,
				-0.7332082390785217,
				1.399072527885437
			],
			"type":"VEC3"
		},
		{
			"bufferView":33,
			"componentType":5126,
			"count":1086,
			"type":"VEC3"
		},
		{
			"bufferView":34,
			"componentType":5126,
			"count":1086,
			"type":"VEC2"
		},
		{
			"bufferView":35,
			"componentType":5123,
			"count":3852,
			"type":"SCALAR"
		},
		{
			"bufferView":36,
			"componentType":5126,
			"count":528,
			"max":[
				1.1703476905822754,
				-0.5725703239440918,
				1.4725136756896973
			],
			"min":[
				-0.4195117652416229,
				-0.9431915879249573,
				1.204349160194397
			],
			"type":"VEC3"
		},
		{
			"bufferView":37,
			"componentType":5126,
			"count":528,
			"type":"VEC3"
		},
		{
			"bufferView":38,
			"componentType":5126,
			"count":528,
			"type":"VEC2"
		},
		{
			"bufferView":39,
			"componentType":5123,
			"count":1026,
			"type":"SCALAR"
		},
		{
			"bufferView":40,
			"componentType":5126,
			"count":864,
			"max":[
				-0.5867159366607666,
				-0.6711851358413696,
				2.138514757156372
			],
			"min":[
				-3.009443759918213,
				-0.8050627708435059,
				1.0199862718582153
			],
			"type":"VEC3"
		},
		{
			"bufferView":41,
			"componentType":5126,
			"count":864,
			"type":"VEC3"
		},
		{
			"bufferView":42,
			"componentType":5126,
			"count":864,
			"type":"VEC2"
		},
		{
			"bufferView":43,
			"componentType":5123,
			"count":3504,
			"type":"SCALAR"
		},
		{
			"bufferView":44,
			"componentType":5126,
			"count":253,
			"max":[
				2.458972930908203,
				-0.8695611953735352,
				2.699199676513672
			],
			"min":[
				-3.0112404823303223,
				-0.9195611476898193,
				-2.429999828338623
			],
			"type":"VEC3"
		},
		{
			"bufferView":45,
			"componentType":5126,
			"count":253,
			"type":"VEC3"
		},
		{
			"bufferView":46,
			"componentType":5126,
			"count":253,
			"type":"VEC2"
		},
		{
			"bufferView":47,
			"componentType":5123,
			"count":948,
			"type":"SCALAR"
		},
		{
			"bufferView":48,
			"componentType":5126,
			"count":72,
			"max":[
				1.5981171131134033,
				0.6374712586402893,
				1.9922842979431152
			],
			"min":[
				-0.5573443174362183,
				0.3611300587654114,
				1.7159430980682373
			],
			"type":"VEC3"
		},
		{
			"bufferView":49,
			"componentType":5126,
			"count":72,
			"type":"VEC3"
		},
		{
			"bufferView":50,
			"componentType":5126,
			"count":72,
			"type":"VEC2"
		},
		{
			"bufferView":51,
			"componentType":5123,
			"count":108,
			"type":"SCALAR"
		},
		{
			"bufferView":52,
			"componentType":5126,
			"count":529,
			"max":[
				1,
				0.12347666919231415,
				1
			],
			"min":[
				-1,
				-0.14344815909862518,
				-1
			],
			"type":"VEC3"
		},
		{
			"bufferView":53,
			"componentType":5126,
			"count":529,
			"type":"VEC3"
		},
		{
			"bufferView":54,
			"componentType":5126,
			"count":529,
			"type":"VEC2"
		},
		{
			"bufferView":55,
			"componentType":5123,
			"count":1428,
			"type":"SCALAR"
		},
		{
			"bufferView":56,
			"componentType":5126,
			"count":582,
			"max":[
				1.0407354831695557,
				0.02729414775967598,
				1.0407354831695557
			],
			"min":[
				-1.0407354831695557,
				-0.18750064074993134,
				-1.0407354831695557
			],
			"type":"VEC3"
		},
		{
			"bufferView":57,
			"componentType":5126,
			"count":582,
			"type":"VEC3"
		},
		{
			"bufferView":58,
			"componentType":5126,
			"count":582,
			"type":"VEC2"
		},
		{
			"bufferView":59,
			"componentType":5123,
			"count":1152,
			"type":"SCALAR"
		},
		{
			"bufferView":60,
			"componentType":5126,
			"count":98,
			"max":[
				1.0149904489517212,
				0.2537476122379303,
				1.0149904489517212
			],
			"min":[
				-1.0149904489517212,
				-0.2537476122379303,
				-1.0149904489517212
			],
			"type":"VEC3"
		},
		{
			"bufferView":61,
			"componentType":5126,
			"count":98,
			"type":"VEC3"
		},
		{
			"bufferView":62,
			"componentType":5126,
			"count":98,
			"type":"VEC2"
		},
		{
			"bufferView":63,
			"componentType":5123,
			"count":288,
			"type":"SCALAR"
		},
		{
			"bufferView":64,
			"componentType":5126,
			"count":4,
			"max":[
				1,
				0,
				1
			],
			"min":[
				-1,
				0,
				-1
			],
			"type":"VEC3"
		},
		{
			"bufferView":65,
			"componentType":5126,
			"count":4,
			"type":"VEC3"
		},
		{
			"bufferView":66,
			"componentType":5126,
			"count":4,
			"type":"VEC2"
		},
		{
			"bufferView":67,
			"componentType":5123,
			"count":6,
			"type":"SCALAR"
		},
		{
			"bufferView":68,
			"componentType":5126,
			"count":216,
			"max":[
				-0.3854227662086487,
				-0.24214138090610504,
				0
			],
			"min":[
				-2.4521846771240234,
				-1.071333408355713,
				-2.3740768432617188
			],
			"type":"VEC3"
		},
		{
			"bufferView":69,
			"componentType":5126,
			"count":216,
			"type":"VEC3"
		},
		{
			"bufferView":70,
			"componentType":5126,
			"count":216,
			"type":"VEC2"
		},
		{
			"bufferView":71,
			"componentType":5123,
			"count":324,
			"type":"SCALAR"
		}
	],
	"bufferViews":[
		{
			"buffer":0,
			"byteLength":1176,
			"byteOffset":0,
			"target":34962
		},
		{
			"buffer":0,
			"byteLength":1176,
			"byteOffset":1176,
			"target":34962
		},
		{
			"buffer":0,
			"byteLength":784,
			"byteOffset":2352,
			"target":34962
		},
		{
			"buffer":0,
			"byteLength":528,
			"byteOffset":3136,
			"target":34963
		},
		{
			"buffer":0,
			"byteLength":576,
			"byteOffset":3664,
			"target":34962
		},
		{
			"buffer":0,
			"byteLength":576,
			"byteOffset":4240,
			"target":34962
		},
		{
			"buffer":0,
			"byteLength":384,
			"byteOffset":4816,
			"target":34962
		},
		{
			"buffer":0,
			"byteLength":144,
			"byteOffset":5200,
			"target":34963
		},
		{
			"buffer":0,
			"byteLength":600,
			"byteOffset":5344,
			"target":34962
		},
		{
			"buffer":0,
			"byteLength":600,
			"byteOffset":5944,
			"target":34962
		},
		{
			"buffer":0,
			"byteLength":400,
			"byteOffset":6544,
			"target":34962
		},
		{
			"buffer":0,
			"byteLength":192,
			"byteOffset":6944,
			"target":34963
		},
		{
			"buffer":0,
			"byteLength":288,
			"byteOffset":7136,
			"target":34962
		},
		{
			"buffer":0,
			"byteLength":288,
			"byteOffset":7424,
			"target":34962
		},
		{
			"buffer":0,
			"byteLength":192,
			"byteOffset":7712,
			"target":34962
		},
		{
			"buffer":0,
			"byteLength":72,
			"byteOffset":7904,
			"target":34963
		},
		{
			"buffer":0,
			"byteLength":288,
			"byteOffset":7976,
			"target":34962
		},
		{
			"buffer":0,
			"byteLength":288,
			"byteOffset":8264,
			"target":34962
		},
		{
			"buffer":0,
			"byteLength":192,
			"byteOffset":8552,
			"target":34962
		},
		{
			"buffer":0,
			"byteLength":72,
			"byteOffset":8744,
			"target":34963
		},
		{
			"buffer":0,
			"byteLength":4752,
			"byteOffset":8816,
			"target":34962
		},
		{
			"buffer":0,
			"byteLength":4752,
			"byteOffset":13568,
			"target":34962
		},
		{
			"buffer":0,
			"byteLength":3168,
			"byteOffset":18320,
			"target":34962
		},
		{
			"buffer":0,
			"byteLength":2280,
			"byteOffset":21488,
			"target":34963
		},
		{
			"buffer":0,
			"byteLength":288,
			"byteOffset":23768,
			"target":34962
		},
		{
			"buffer":0,
			"byteLength":288,
			"byteOffset":24056,
			"target":34962
		},
		{
			"buffer":0,
			"byteLength":192,
			"byteOffset":24344,
			"target":34962
		},
		{
			"buffer":0,
			"byteLength":72,
			"byteOffset":24536,
			"target":34963
		},
		{
			"buffer":0,
			"byteLength":288,
			"byteOffset":24608,
			"target":34962
		},
		{
			"buffer":0,
			"byteLength":288,
			"byteOffset":24896,
			"target":34962
		},
		{
			"buffer":0,
			"byteLength":192,
			"byteOffset":25184,
			"target":34962
		},
		{
			"buffer":0,
			"byteLength":72,
			"byteOffset":25376,
			"target":34963
		},
		{
			"buffer":0,
			"byteLength":13032,
			"byteOffset":25448,
			"target":34962
		},
		{
			"buffer":0,
			"byteLength":13032,
			"byteOffset":38480,
			"target":34962
		},
		{
			"buffer":0,
			"byteLength":8688,
			"byteOffset":51512,
			"target":34962
		},
		{
			"buffer":0,
			"byteLength":7704,
			"byteOffset":60200,
			"target":34963
		},
		{
			"buffer":0,
			"byteLength":6336,
			"byteOffset":67904,
			"target":34962
		},
		{
			"buffer":0,
			"byteLength":6336,
			"byteOffset":74240,
			"target":34962
		},
		{
			"buffer":0,
			"byteLength":4224,
			"byteOffset":80576,
			"target":34962
		},
		{
			"buffer":0,
			"byteLength":2052,
			"byteOffset":84800,
			"target":34963
		},
		{
			"buffer":0,
			"byteLength":10368,
			"byteOffset":86852,
			"target":34962
		},
		{
			"buffer":0,
			"byteLength":10368,
			"byteOffset":97220,
			"target":34962
		},
		{
			"buffer":0,
			"byteLength":6912,
			"byteOffset":107588,
			"target":34962
		},
		{
			"buffer":0,
			"byteLength":7008,
			"byteOffset":114500,
			"target":34963
		},
		{
			"buffer":0,
			"byteLength":3036,
			"byteOffset":121508,
			"target":34962
		},
		{
			"buffer":0,
			"byteLength":3036,
			"byteOffset":124544,
			"target":34962
		},
		{
			"buffer":0,
			"byteLength":2024,
			"byteOffset":127580,
			"target":34962
		},
		{
			"buffer":0,
			"byteLength":1896,
			"byteOffset":129604,
			"target":34963
		},
		{
			"buffer":0,
			"byteLength":864,
			"byteOffset":131500,
			"target":34962
		},
		{
			"buffer":0,
			"byteLength":864,
			"byteOffset":132364,
			"target":34962
		},
		{
			"buffer":0,
			"byteLength":576,
			"byteOffset":133228,
			"target":34962
		},
		{
			"buffer":0,
			"byteLength":216,
			"byteOffset":133804,
			"target":34963
		},
		{
			"buffer":0,
			"byteLength":6348,
			"byteOffset":134020,
			"target":34962
		},
		{
			"buffer":0,
			"byteLength":6348,
			"byteOffset":140368,
			"target":34962
		},
		{
			"buffer":0,
			"byteLength":4232,
			"byteOffset":146716,
			"target":34962
		},
		{
			"buffer":0,
			"byteLength":2856,
			"byteOffset":150948,
			"target":34963
		},
		{
			"buffer":0,
			"byteLength":6984,
			"byteOffset":153804,
			"target":34962
		},
		{
			"buffer":0,
			"byteLength":6984,
			"byteOffset":160788,
			"target":34962
		},
		{
			"buffer":0,
			"byteLength":4656,
			"byteOffset":167772,
			"target":34962
		},
		{
			"buffer":0,
			"byteLength":2304,
			"byteOffset":172428,
			"target":34963
		},
		{
			"buffer":0,
			"byteLength":1176,
			"byteOffset":174732,
			"target":34962
		},
		{
			"buffer":0,
			"byteLength":1176,
			"byteOffset":175908,
			"target":34962
		},
		{
			"buffer":0,
			"byteLength":784,
			"byteOffset":177084,
			"target":34962
		},
		{
			"buffer":0,
			"byteLength":576,
			"byteOffset":177868,
			"target":34963
		},
		{
			"buffer":0,
			"byteLength":48,
			"byteOffset":178444,
			"target":34962
		},
		{
			"buffer":0,
			"byteLength":48,
			"byteOffset":178492,
			"target":34962
		},
		{
			"buffer":0,
			"byteLength":32,
			"byteOffset":178540,
			"target":34962
		},
		{
			"buffer":0,
			"byteLength":12,
			"byteOffset":178572,
			"target":34963
		},
		{
			"buffer":0,
			"byteLength":2592,
			"byteOffset":178584,
			"target":34962
		},
		{
			"buffer":0,
			"byteLength":2592,
			"byteOffset":181176,
			"target":34962
		},
		{
			"buffer":0,
			"byteLength":1728,
			"byteOffset":183768,
			"target":34962
		},
		{
			"buffer":0,
			"byteLength":648,
			"byteOffset":185496,
			"target":34963
		}
	],
	"buffers":[
		{
			"byteLength":186144,
			"uri":"data:application/octet-stream;base64,"
		}
	]
}
